<mxfile host="app.diagrams.net" modified="2023-02-15T08:54:16.909Z" agent="5.0 (Macintosh; Intel Mac OS X 10_15_7) AppleWebKit/537.36 (KHTML, like Gecko) Chrome/109.0.0.0 Safari/537.36" etag="qCBf3Qu1tSzDJ8zTGw_L" version="20.8.20" type="github">
  <diagram name="第 1 页" id="98oqeY-ITSY8djm6jebU">
    <mxGraphModel dx="1306" dy="836" grid="1" gridSize="10" guides="1" tooltips="1" connect="1" arrows="1" fold="1" page="1" pageScale="1" pageWidth="827" pageHeight="1169" math="0" shadow="0">
      <root>
        <mxCell id="0" />
        <mxCell id="1" parent="0" />
        <mxCell id="ukLHQ4DrEaLfvIWiOJtH-3" style="edgeStyle=orthogonalEdgeStyle;rounded=0;orthogonalLoop=1;jettySize=auto;html=1;exitX=0.5;exitY=1;exitDx=0;exitDy=0;" edge="1" parent="1" source="ukLHQ4DrEaLfvIWiOJtH-1" target="ukLHQ4DrEaLfvIWiOJtH-2">
          <mxGeometry relative="1" as="geometry" />
        </mxCell>
        <mxCell id="ukLHQ4DrEaLfvIWiOJtH-1" value="&lt;pre style=&quot;box-sizing: border-box; font-family: ui-monospace, SFMono-Regular, &amp;quot;SF Mono&amp;quot;, Menlo, Consolas, &amp;quot;Liberation Mono&amp;quot;, monospace; font-size: 13.6px; margin-top: 0px; margin-bottom: 0px; overflow-wrap: normal; padding: 16px; overflow: auto; line-height: 1.45; background-color: var(--color-canvas-subtle); border-radius: 6px; word-break: normal; color: rgb(36, 41, 47); text-align: start;&quot;&gt;runtime·&lt;span style=&quot;box-sizing: border-box;&quot; class=&quot;pl-s1&quot;&gt;args&lt;/span&gt;(&lt;span style=&quot;box-sizing: border-box;&quot; class=&quot;pl-s1&quot;&gt;SB&lt;/span&gt;)&lt;/pre&gt;" style="rounded=0;whiteSpace=wrap;html=1;" vertex="1" parent="1">
          <mxGeometry x="140" y="140" width="180" height="40" as="geometry" />
        </mxCell>
        <mxCell id="ukLHQ4DrEaLfvIWiOJtH-5" style="edgeStyle=orthogonalEdgeStyle;rounded=0;orthogonalLoop=1;jettySize=auto;html=1;exitX=0.5;exitY=1;exitDx=0;exitDy=0;" edge="1" parent="1" source="ukLHQ4DrEaLfvIWiOJtH-2" target="ukLHQ4DrEaLfvIWiOJtH-4">
          <mxGeometry relative="1" as="geometry" />
        </mxCell>
        <mxCell id="ukLHQ4DrEaLfvIWiOJtH-2" value="&lt;pre style=&quot;box-sizing: border-box; font-family: ui-monospace, SFMono-Regular, &amp;quot;SF Mono&amp;quot;, Menlo, Consolas, &amp;quot;Liberation Mono&amp;quot;, monospace; font-size: 13.6px; margin-top: 0px; margin-bottom: 0px; overflow-wrap: normal; padding: 16px; overflow: auto; line-height: 1.45; background-color: var(--color-canvas-subtle); border-radius: 6px; word-break: normal; color: rgb(36, 41, 47); text-align: start;&quot;&gt;runtime·&lt;span style=&quot;box-sizing: border-box;&quot; class=&quot;pl-s1&quot;&gt;osinit&lt;/span&gt;(&lt;span style=&quot;box-sizing: border-box;&quot; class=&quot;pl-s1&quot;&gt;SB&lt;/span&gt;)&lt;/pre&gt;" style="rounded=0;whiteSpace=wrap;html=1;" vertex="1" parent="1">
          <mxGeometry x="140" y="230" width="180" height="40" as="geometry" />
        </mxCell>
        <mxCell id="ukLHQ4DrEaLfvIWiOJtH-4" value="&lt;pre style=&quot;box-sizing: border-box; font-family: ui-monospace, SFMono-Regular, &amp;quot;SF Mono&amp;quot;, Menlo, Consolas, &amp;quot;Liberation Mono&amp;quot;, monospace; font-size: 13.6px; margin-top: 0px; margin-bottom: 0px; overflow-wrap: normal; padding: 16px; overflow: auto; line-height: 1.45; background-color: var(--color-canvas-subtle); border-radius: 6px; word-break: normal; color: rgb(36, 41, 47); text-align: start;&quot;&gt;runtime·&lt;span style=&quot;box-sizing: border-box;&quot; class=&quot;pl-s1&quot;&gt;schedinit&lt;/span&gt;(&lt;span style=&quot;box-sizing: border-box;&quot; class=&quot;pl-s1&quot;&gt;SB&lt;/span&gt;)&lt;/pre&gt;" style="rounded=0;whiteSpace=wrap;html=1;" vertex="1" parent="1">
          <mxGeometry x="135" y="320" width="190" height="40" as="geometry" />
        </mxCell>
        <mxCell id="ukLHQ4DrEaLfvIWiOJtH-6" value="" style="rounded=0;whiteSpace=wrap;html=1;" vertex="1" parent="1">
          <mxGeometry x="460" y="150" width="180" height="50" as="geometry" />
        </mxCell>
      </root>
    </mxGraphModel>
  </diagram>
</mxfile>
